<?xml version="1.0" encoding="UTF-8"?><svg id="Layer_1" xmlns="http://www.w3.org/2000/svg" viewBox="0 0 464.54 501.41"><path d="m464.54,149.8v31.34c-1.05,2.59-1.01,5.41-1.75,8.1-1.47,5.37-2.98,10.72-5.18,15.8-3.76,8.67-8.82,16.58-14.97,23.81-6.75,7.92-14.37,14.88-22.63,21.18-5.33,4.06-10.93,7.71-16.63,11.22-1.85,1.14-2.16,2.74-1.11,4.22,3.2,4.49,6.18,9.17,10.32,12.94,7.62,6.93,16.7,10.98,26.49,13.64,3.25.88,5.06,3.59,4.57,6.89-1.16,7.8-3.75,15.18-7.1,22.24-5.1,10.73-11.36,20.84-17.88,30.77-11.21,17.08-24.84,31.99-40.58,45.01-6.5,5.37-13.32,10.31-20.06,15.36-9.94,7.46-20.73,13.29-32.01,18.27-8.63,3.81-17.42,7.24-26.6,9.64-1.78.47-3.77.73-5.45,1.97-2.33,1.71-2.64,4.2-3.6,6.58-2.15,5.3-4.36,10.58-6.76,15.79-5.6,12.15-13.95,21.72-24.77,29.32-5.29,3.71-11.47,5.44-17.48,7.53h-16.93c-14.01-3.67-25.27-11.47-33.98-22.92-6.75-8.87-11.52-18.81-14.98-29.4-1.26-3.87-2.53-7.04-7.74-8.32-10.95-2.7-21.42-7.06-31.76-11.73-12.18-5.5-23.21-12.69-33.82-20.68-8.68-6.53-17.2-13.25-25.2-20.58-5.03-4.6-9.88-9.44-14.26-14.71-6.8-8.17-12.99-16.78-18.77-25.71-5.02-7.76-9.48-15.83-13.67-24.02-3.68-7.2-6.35-14.87-8.07-22.84-.98-4.57.09-7.21,4.39-8.77,3.76-1.37,7.64-2.44,11.33-3.97,10.65-4.4,18.37-12.25,24.72-21.6,2.01-2.96,1.82-3.99-1.29-5.67-7.14-3.86-13.77-8.44-19.96-13.68-10.04-8.5-19.33-17.63-26.44-28.86-7.52-11.88-11.98-24.72-13.79-38.63-.44-3.36.19-6.85-1.14-10.1v-9.4c.73-.33.68-1.01.66-1.61-.26-6.91,1.3-13.49,2.83-20.2,2.41-10.64,6.4-20.54,11.74-29.93,6.23-10.96,13.66-20.93,23.45-29.11,6.74-5.63,14.15-10.11,22.06-13.62,8.62-3.83,17.83-5.7,27.3-6.18,6.59-.33,13.15.23,19.58,1.44,6.36,1.19,12.39,3.6,18.32,6.35,11.14,5.17,20.95,12.08,29.15,21.15,1.79,1.99,3.22,1.67,5.09.94.96-.37,1.86-.92,2.82-1.3,7.2-2.86,14.67-4.75,22.27-6.18,1.14-.21,2.48-.27,2.78-1.59.33-1.41-1.1-1.9-1.97-2.53-11.57-8.44-23.38-16.56-34.1-26.1-7.73-6.88-15.12-14.05-21.24-22.48-3.25-4.47-5.38-9.41-7.32-14.48-2.02-5.31.97-10.68,6.03-12.89,2.16-.94,4.56-.28,6.58-1.51h5.02c4.17,1.22,8.57.57,12.81,1.75,2.38.66,4.7,1.58,7.15,2.02,9.24,1.69,18.17,4.5,27.04,7.54,7.77,2.67,15.35,5.83,22.73,9.45,9.01,4.43,17.97,9,25.94,15.17,5.51,4.26,10.67,8.96,15.99,13.46,3.47,2.94,4.62,2.59,6.99-1.01,3.7-5.62,4.58-12.3,7.32-18.28,2.91-6.33,6.14-12.46,11.13-17.29,4.52-4.37,10.03-5.17,13.39-.32,4.7,6.79,6.35,14.67,7.48,22.66.58,4.11.63,8.33,1.6,12.33,2.05,8.46,1.9,17.11,2.73,25.67.39,4.03.09,8.13.07,12.2,0,2.03,1.05,3.5,2.79,4.07,1.62.53,3.53.76,4.42-1.58.27-.72,1.04-1.29,1.66-1.84,7.89-7.02,15.93-13.8,25.55-18.48,6.79-3.3,13.83-5.93,21.21-7.26,6.98-1.26,14.14-.82,21.22-.66,8.89.21,17.39,2.51,25.44,6.03,7.53,3.29,14.39,7.81,20.67,13.23,7.56,6.53,13.92,14.04,19.57,22.23,4.97,7.2,8.89,14.96,11.9,23.12,2.13,5.76,4.07,11.64,4.87,17.81.34,2.62,1.19,5.17,1.81,7.75Zm-238.85,256.42c0-4.91-.02-9.81.01-14.72.01-1.89-.48-3.36-2.64-3.5-6.39-.4-12.11-3.02-18-5.17-7.23-2.63-13.84-6.63-21.01-9.39-3.21-1.23-5.49-.65-6.69,2.33-1.69,4.18-2.64,8.68-1.68,13.09,1.84,8.51,1.56,17.26,3.5,25.78,1.65,7.21,2.91,14.53,5.01,21.61,2.24,7.53,4.75,15,8.23,22.12,5.67,11.61,13.32,21.35,24.91,27.54,8.53,4.56,17.55,5.08,26.42,1.72,12.37-4.69,21.05-13.63,27.25-25.26,4.13-7.75,6.92-16,9.71-24.24,1.97-5.82,3.28-11.89,4.46-17.93,1.26-6.47,2.07-13.02,2.96-19.55,1.05-7.7,2.41-15.4.88-23.21-.72-3.7-3.9-5.51-7.36-4.02-7.26,3.13-14.51,6.3-21.75,9.48-5.68,2.5-11.49,4.53-17.73,5.06-2.62.22-3.33,2.06-3.19,4.15.64,9.6-.2,19.19.11,28.78.04,1.32.24,2.91-.78,3.85-2.16,2-4.64,3.56-7.8,2.53-2.82-.92-4.82-4.04-4.83-7.28-.01-4.59,0-9.19,0-13.78Zm157.99-125.93c.73-7.97-2.06-15.33-5.15-22.56-3.63-8.52-9.34-15.58-15.78-22.18-7.51-7.69-16.22-13.45-26.46-16.44-9.41-2.75-19.1-3.53-28.97-2.33-8.73,1.07-16.83,3.83-24.37,8.09-12.29,6.94-20.88,17.43-27.07,29.94-5.52,11.18-7.04,22.82-3.23,34.87,2.17,6.87,11.69,12.09,19.67,8.91,9.49-3.78,18.66-8.76,29.28-9.3,6.82-.35,13.51.1,19.99,2.01,7.45,2.2,14.4,5.71,21.42,9.02,6.64,3.14,13.49,6,21.12,4.86,5.36-.8,10.23-2.68,13.98-6.96,4.52-5.15,6.06-11.14,5.55-17.94Zm-301.53.1c0,2.71-.21,5.44.08,8.12.17,1.58,1.29,3.04,1.72,4.62,1.58,5.72,11.52,11.67,16.5,12.16,9.19.91,17.29-2.58,25.23-6.13,7.87-3.51,15.46-7.63,24.08-8.95,8.68-1.33,17.39-1.43,25.84,1.4,6.22,2.08,12.32,4.5,18.44,6.85,6.78,2.6,14.79-.51,18.19-6.95,2.26-4.27,2.52-8.93,2.72-13.52.51-11.44-3.26-21.71-9.55-31.09-5.69-8.47-12.84-15.4-21.51-20.96-8.03-5.15-16.55-8.9-25.96-9.57-10.15-.72-20.15.57-30,3.93-13.31,4.55-24.12,12.19-32.37,23.41-8,10.89-13.88,22.67-13.43,36.67Zm148.64,80.58c3.93.25,7.89-.42,11.9-1.12,8.58-1.5,16.29-4.39,22.54-10.79,9.32-9.54,8.83-19.93,1.02-29.17-6.68-7.9-15.95-11.04-26.08-12.21-10.63-1.22-20.85-.4-30.55,4.45-5.31,2.65-10.4,5.78-13.27,11.11-6.01,11.16-2.27,22.02,7.23,29.08,7.91,5.87,16.93,9.27,27.21,8.67Z"/></svg>